<?xml version="1.0" encoding="UTF-8"?>
<svg width="199px" height="391px" viewBox="0 0 199 391" version="1.1" xmlns="http://www.w3.org/2000/svg" xmlns:xlink="http://www.w3.org/1999/xlink">
    <!-- Generator: Sketch 48.2 (47327) - http://www.bohemiancoding.com/sketch -->
    <title>beer</title>
    <desc>Created with Sketch.</desc>
    <defs>
        <polygon id="path-1" points="0.713693248 1.62589361 58.322807 1.62589361 58.322807 105.163768 0.713693248 105.163768"></polygon>
        <polygon id="path-3" points="0 1.32456851 115.536228 1.32456851 115.536228 86.9868575 0 86.9868575"></polygon>
    </defs>
    <g id="Desktop-HD-Copy" stroke="none" stroke-width="1" fill="none" fill-rule="evenodd" transform="translate(-163.000000, -353.000000)">
        <g id="Group-8" transform="translate(0.000000, -3.000000)">
            <g id="beer" transform="translate(163.000000, 355.000000)">
                <path d="M194.02386,372.60614 C194.02386,383.128947 151.653684,391.657018 99.3870175,391.657018 C47.1221053,391.657018 4.75192982,383.128947 4.75192982,372.60614 C4.75192982,362.083333 47.1221053,353.555263 99.3870175,353.555263 C151.653684,353.555263 194.02386,362.083333 194.02386,372.60614" id="Fill-1" fill-opacity="0.450000018" fill="#333333"></path>
                <path d="M194.439298,28.7259649 L99.3866667,28.7259649 L4.33578947,28.7259649 C1.52,91.3908772 26.1638596,356.831228 31.0919298,367.392632 C36.02,377.954035 99.3866667,377.954035 99.3866667,377.954035 C99.3866667,377.954035 162.755088,377.954035 167.684912,367.392632 C172.612982,356.831228 197.255088,91.3908772 194.439298,28.7259649" id="Fill-3" fill="#F0F9FF"></path>
                <path d="M44.3192982,352.664561 L154.45614,352.664561 C157.589474,329.755789 173.484211,278.738246 178.852632,215.401404 C186.057895,130.408421 189.896491,63.6312281 189.321053,34.0066667 L9.45438596,34.0066667 C8.87894737,63.6312281 12.7175439,130.408421 19.9210526,215.401404 C25.2912281,278.738246 41.1859649,329.755789 44.3192982,352.664561" id="Fill-5" fill="#F1DD6C"></path>
                <path d="M187.695088,91.3535088 C188.996842,66.3763158 189.568772,46.7482456 189.321404,34.0061404 L9.45473684,34.0061404 C9.20736842,46.7482456 9.77754386,66.3763158 11.0810526,91.3535088 L187.695088,91.3535088 Z" id="Fill-7" fill="#FBF7CA"></path>
                <path d="M189.320877,34.0070175 L163.81386,34.0070175 L163.81386,257.166667 C163.81386,299.426316 128.548947,334.691228 86.2875439,334.691228 C67.592807,334.691228 50.2752632,327.780702 36.7647368,316.426316 C40.2454386,331.824561 43.1577193,344.177193 44.3191228,352.664912 L154.455965,352.664912 C157.589298,329.75614 173.484035,278.738596 178.852456,215.401754 C186.057719,130.408772 189.896316,63.6315789 189.320877,34.0070175" id="Fill-9" fill="#F8E890"></path>
                <path d="M99.387193,339.544386 L81.432807,28.7250877 L21.2345614,28.7250877 C21.2345614,28.7250877 27.5696491,195.909298 37.0749123,267.726842 C46.5801754,339.544386 99.387193,339.544386 99.387193,339.544386" id="Fill-11" fill-opacity="0.3" fill="#FAF7E6"></path>
                <path d="M186.644737,28.7259649 L179.039474,28.7259649 C183.213158,59.14 158.044737,297.297895 144.334211,327.978596 C136.435965,345.648772 117.716667,358.54 100.160526,363.604912 C81.0833333,369.110175 60.2763158,366.278596 43.2061404,355.790877 C37.2570175,352.134737 31.8570175,347.606667 27.1324561,342.417193 C28.7833333,356.541754 30.1131579,365.608421 30.9061404,367.392632 C35.6061404,377.954035 96.0219298,377.954035 96.0219298,377.954035 C96.0219298,377.954035 156.437719,377.954035 161.135965,367.392632 C165.835965,356.831228 189.330702,91.3908772 186.644737,28.7259649" id="Fill-13" fill="#F2F2F2"></path>
                <g id="Group-17" transform="translate(140.350877, 5.692982)">
                    <mask id="mask-2" fill="white">
                        <use xlink:href="#path-1"></use>
                    </mask>
                    <g id="Clip-16"></g>
                    <path d="M48.6975439,7.28631579 C29.9887719,-3.83824561 7.24140351,1.34596491 1.98,23.6249123 C-0.218245614,32.9284211 -0.018245614,44.6863158 6.33964912,52.4196491 C8.04842105,54.4950877 9.74140351,56.1757895 11.6010526,57.637193 C11.1536842,59.2547368 10.8466667,60.9705263 10.6484211,62.714386 C10.0694737,67.7810526 12.4501754,74.7740351 14.7238596,79.1301754 C15.28,80.1933333 17.5589474,83.2301754 19.834386,86.3792982 C19.3677193,87.8845614 19.0308772,89.4880702 19.0080702,91.3319298 C18.902807,99.8898246 23.8887719,105.721404 32.725614,105.121404 C36.4203509,104.868772 39.2887719,102.840702 40.4308772,99.2547368 C41.9764912,94.3933333 40.4764912,90.3582456 38.1554386,86.4091228 C38.8168421,85.7635088 39.5378947,85.1652632 40.3764912,84.6687719 C44.0764912,81.582807 46.7010526,78.4021053 48.9484211,74.1968421 C52.1185965,68.2617544 50.2764912,60.3231579 46.1291228,55.1898246 C52.8957895,49.8740351 57.9045614,44.2898246 58.2238596,34.6582456 C58.5554386,24.614386 58.6291228,13.1933333 48.6975439,7.28631579" id="Fill-15" fill="#FFFAF2" mask="url(#mask-2)"></path>
                </g>
                <g id="Group-20" transform="translate(0.000000, 0.429825)">
                    <mask id="mask-4" fill="white">
                        <use xlink:href="#path-3"></use>
                    </mask>
                    <g id="Clip-19"></g>
                    <path d="M103.785088,9.41421053 C98.5394737,7.86684211 94.0763158,9.82473684 90.3605263,12.9598246 C85.6868421,9.59491228 80.3061404,7.14052632 74.5938596,8.07561404 C67.7359649,9.19666667 63.6201754,13.0440351 59.2850877,17.3440351 C52.3429825,10.9773684 48.2535088,3.23 36.7921053,1.76684211 C26.0868421,0.400175439 10.2359649,1.73175439 4.07807018,12.5107018 C-1.51315789,22.2984211 -1.21315789,34.1598246 4.10614035,44.2177193 C8.65,52.8124561 13.7675439,55.4054386 20.6447368,56.8001754 C15.2517544,79.8510526 47.3885965,102.665088 63.7587719,72.5615789 C65.4008772,69.5405263 66.2552632,66.13 67.0763158,62.8264912 C67.4342105,61.107193 67.4903509,59.375614 67.2464912,57.6264912 C67.272807,57.0036842 67.2798246,56.4773684 67.272807,56.0142105 C74.3359649,53.7107018 81.4149123,53.184386 87.1061404,47.307193 C90.0219298,44.2966667 90.927193,43.0668421 92.65,39.1721053 C94.0166667,36.0861404 95.3236842,38.1370175 99.2535088,37.2177193 C106.116667,35.6107018 110.916667,33.5563158 113.755263,27.1826316 C114.592105,25.6036842 115.20614,23.8194737 115.471053,21.7405263 C116.309649,15.1668421 108.871053,10.9142105 103.785088,9.41421053" id="Fill-18" fill="#FFFAF2" mask="url(#mask-4)"></path>
                </g>
            </g>
        </g>
    </g>
</svg>