<?xml version="1.0" encoding="UTF-8"?>
<svg width="150px" height="120px" viewBox="0 0 150 120" version="1.1" xmlns="http://www.w3.org/2000/svg" xmlns:xlink="http://www.w3.org/1999/xlink">
    <!-- Generator: Sketch 48.2 (47327) - http://www.bohemiancoding.com/sketch -->
    <title>Cloudy</title>
    <desc>Created with Sketch.</desc>
    <defs>
        <path d="M25.3539216,20.8767778 C24.9426797,20.8564583 24.5328758,20.8368646 24.1245098,20.8368646 C10.8526144,20.8368646 0.0539215686,31.6693056 0.0539215686,45.0053924 C0.0539215686,50.7826458 2.11300654,56.3400139 5.85444444,60.7166771 C9.55418301,65.0447188 14.6637908,67.8604132 20.2421569,68.7711597 L94.4914379,68.7573715 C103.18719,67.0977083 109.499608,59.5671771 109.499608,50.6643576 C109.499608,41.7143681 103.101634,34.1170729 94.5611765,32.4487014 C93.7588235,28.4123889 91.7141176,24.7229583 88.6693464,21.883316 C85.0379085,18.4994028 80.3064706,16.6343681 75.350719,16.6343681 C73.307451,16.6343681 71.2785621,16.9573021 69.3445752,17.582125 C68.2992157,13.4108333 66.0747712,9.61254861 62.8869281,6.62994444 C58.7335294,2.74239931 53.3176471,0.600149306 47.6379085,0.600149306 C36.0347059,0.600149306 26.4654248,9.50804861 25.3539216,20.8767778" id="path-1"></path>
        <linearGradient x1="100%" y1="100%" x2="11.8186458%" y2="32.3290247%" id="linearGradient-3">
            <stop stop-color="#FFFFFF" offset="0%"></stop>
            <stop stop-color="#CDF8FF" offset="100%"></stop>
        </linearGradient>
        <path d="M25.8873856,20.22075 C25.8873856,20.5357014 25.8952941,20.8470243 25.9103922,21.1561701 C24.6328105,20.9159653 23.3164052,20.7846146 21.9676471,20.7846146 C10.2199346,20.7846146 0.695228758,30.3536215 0.695228758,42.1577674 C0.695228758,52.7877396 8.41895425,61.5998472 18.5339216,63.2508021 L91.8111765,63.2508021 C99.0603922,61.8661771 104.543137,55.4691806 104.543137,47.7818993 C104.543137,39.4436701 98.0919608,32.6228681 89.9311111,32.0742431 C89.2366013,23.3942118 82.0111111,16.5654271 73.1938562,16.5654271 C70.2216993,16.5654271 67.4321569,17.3448229 65.01,18.7047743 C64.2385621,8.54214931 55.7930065,0.5355625 45.4810458,0.5355625 C34.6586275,0.5355625 25.8873856,9.34912153 25.8873856,20.22075" id="path-4"></path>
        <linearGradient x1="22.0065398%" y1="12.8431602%" x2="100%" y2="100%" id="linearGradient-6">
            <stop stop-color="#EEF9FA" offset="0%"></stop>
            <stop stop-color="#FFFFFF" offset="100%"></stop>
        </linearGradient>
        <path d="M20.7441176,17.081 C20.4076471,17.064375 20.0723529,17.0483438 19.7382353,17.0483438 C8.87941176,17.0483438 0.0441176471,25.91125 0.0441176471,36.8225938 C0.0441176471,41.5494375 1.72882353,46.096375 4.79,49.6772813 C7.81705882,53.2184063 11.9976471,55.5221563 16.5617647,56.2673125 L77.3111765,56.2560313 C84.4258824,54.898125 89.5905882,48.7367813 89.5905882,41.4526563 C89.5905882,34.1299375 84.3558824,27.9139688 77.3682353,26.5489375 C76.7117647,23.2465 75.0388235,20.227875 72.5476471,17.9045313 C69.5764706,15.135875 65.7052941,13.6099375 61.6505882,13.6099375 C59.9788235,13.6099375 58.3188235,13.8741563 56.7364706,14.385375 C55.8811765,10.9725 54.0611765,7.8648125 51.4529412,5.4245 C48.0547059,2.24378125 43.6235294,0.49103125 38.9764706,0.49103125 C29.4829412,0.49103125 21.6535294,7.7793125 20.7441176,17.081" id="path-7"></path>
        <path d="M21.1805882,16.54425 C21.1805882,16.8019375 21.1870588,17.0566563 21.1994118,17.3095938 C20.1541176,17.1130625 19.0770588,17.0055938 17.9735294,17.0055938 C8.36176471,17.0055938 0.568823529,24.8347813 0.568823529,34.4927188 C0.568823529,43.1899688 6.88823529,50.399875 15.1641176,51.7506563 L75.1182353,51.7506563 C81.0494118,50.6177813 85.5352941,45.383875 85.5352941,39.0942813 C85.5352941,32.2720938 80.2570588,26.6914375 73.58,26.2425625 C73.0117647,19.1407188 67.1,13.5535313 59.8858824,13.5535313 C57.4541176,13.5535313 55.1717647,14.1912188 53.19,15.3039063 C52.5588235,6.98903125 45.6488235,0.4381875 37.2117647,0.4381875 C28.3570588,0.4381875 21.1805882,7.64928125 21.1805882,16.54425" id="path-9"></path>
        <linearGradient x1="22.0065398%" y1="12.8431602%" x2="100%" y2="100%" id="linearGradient-11">
            <stop stop-color="#E8FCFF" offset="0%"></stop>
            <stop stop-color="#FFFFFF" offset="100%"></stop>
        </linearGradient>
        <path d="M29.9637255,24.6725556 C29.4777124,24.6485417 28.9933987,24.6253854 28.5107843,24.6253854 C12.825817,24.6253854 0.0637254902,37.4273611 0.0637254902,53.188191 C0.0637254902,60.0158542 2.49718954,66.5836528 6.91888889,71.7560729 C11.2913072,76.8710313 17.3299346,80.1986701 23.922549,81.2750069 L111.671699,81.2587118 C121.948497,79.2972917 129.408627,70.3975729 129.408627,59.876059 C129.408627,49.2987986 121.847386,40.3201771 111.754118,38.3484653 C110.805882,33.5782778 108.389412,29.2180417 104.791046,25.8621007 C100.499346,21.8629306 94.9076471,19.6587986 89.0508497,19.6587986 C86.6360784,19.6587986 84.2383007,20.0404479 81.9526797,20.778875 C80.7172549,15.8491667 78.088366,11.3602847 74.320915,7.83538889 C69.4123529,3.24101736 63.0117647,0.709267361 56.2993464,0.709267361 C42.5864706,0.709267361 31.2773203,11.2367847 29.9637255,24.6725556" id="path-12"></path>
        <path d="M30.594183,23.89725 C30.594183,24.2694653 30.6035294,24.6373924 30.6213725,25.0027465 C29.1115033,24.7188681 27.5557516,24.5636354 25.9617647,24.5636354 C12.0781046,24.5636354 0.821633987,35.8724618 0.821633987,49.822816 C0.821633987,62.3855104 9.9496732,72.7998194 21.9037255,74.7509479 L108.504118,74.7509479 C117.071373,73.1145729 123.55098,65.5544861 123.55098,56.4695174 C123.55098,46.6152465 115.926863,38.5542986 106.282222,37.9059236 C105.461438,27.6477049 96.9222222,19.5773229 86.5018301,19.5773229 C82.989281,19.5773229 79.692549,20.4984271 76.83,22.1056424 C75.9183007,10.0952674 65.9371895,0.6329375 53.7503268,0.6329375 C40.9601961,0.6329375 30.594183,11.0489618 30.594183,23.89725" id="path-14"></path>
        <linearGradient x1="22.0065398%" y1="12.8431602%" x2="100%" y2="100%" id="linearGradient-16">
            <stop stop-color="#EEFDFF" offset="0%"></stop>
            <stop stop-color="#FFFFFF" offset="100%"></stop>
        </linearGradient>
    </defs>
    <g id="Weather-Icons" stroke="none" stroke-width="1" fill="none" fill-rule="evenodd" transform="translate(-47.000000, -258.000000)">
        <g id="Cloudy-Icon" transform="translate(47.000000, 258.000000)">
            <g id="Cloudy">
                <g id="cloud">
                    <g id="cloud-outline" transform="translate(0.000000, 0.203194)">
                        <mask id="mask-2" fill="white">
                            <use xlink:href="#path-1"></use>
                        </mask>
                        <g id="Clip-3"></g>
                        <path d="M25.3539216,20.8767778 C24.9426797,20.8564583 24.5328758,20.8368646 24.1245098,20.8368646 C10.8526144,20.8368646 0.0539215686,31.6693056 0.0539215686,45.0053924 C0.0539215686,50.7826458 2.11300654,56.3400139 5.85444444,60.7166771 C9.55418301,65.0447188 14.6637908,67.8604132 20.2421569,68.7711597 L94.4914379,68.7573715 C103.18719,67.0977083 109.499608,59.5671771 109.499608,50.6643576 C109.499608,41.7143681 103.101634,34.1170729 94.5611765,32.4487014 C93.7588235,28.4123889 91.7141176,24.7229583 88.6693464,21.883316 C85.0379085,18.4994028 80.3064706,16.6343681 75.350719,16.6343681 C73.307451,16.6343681 71.2785621,16.9573021 69.3445752,17.582125 C68.2992157,13.4108333 66.0747712,9.61254861 62.8869281,6.62994444 C58.7335294,2.74239931 53.3176471,0.600149306 47.6379085,0.600149306 C36.0347059,0.600149306 26.4654248,9.50804861 25.3539216,20.8767778" id="Fill-2" fill="url(#linearGradient-3)" mask="url(#mask-2)"></path>
                    </g>
                    <g transform="translate(2.156863, 3.105972)">
                        <mask id="mask-5" fill="white">
                            <use xlink:href="#path-4"></use>
                        </mask>
                        <g id="Clip-6"></g>
                        <path d="M25.8873856,20.22075 C25.8873856,20.5357014 25.8952941,20.8470243 25.9103922,21.1561701 C24.6328105,20.9159653 23.3164052,20.7846146 21.9676471,20.7846146 C10.2199346,20.7846146 0.695228758,30.3536215 0.695228758,42.1577674 C0.695228758,52.7877396 8.41895425,61.5998472 18.5339216,63.2508021 L91.8111765,63.2508021 C99.0603922,61.8661771 104.543137,55.4691806 104.543137,47.7818993 C104.543137,39.4436701 98.0919608,32.6228681 89.9311111,32.0742431 C89.2366013,23.3942118 82.0111111,16.5654271 73.1938562,16.5654271 C70.2216993,16.5654271 67.4321569,17.3448229 65.01,18.7047743 C64.2385621,8.54214931 55.7930065,0.5355625 45.4810458,0.5355625 C34.6586275,0.5355625 25.8873856,9.34912153 25.8873856,20.22075" id="Fill-5" fill="url(#linearGradient-6)" mask="url(#mask-5)"></path>
                    </g>
                </g>
                <g id="cloud" transform="translate(60.000000, 10.000000)">
                    <g id="cloud-outline" transform="translate(0.000000, 0.166250)">
                        <mask id="mask-8" fill="white">
                            <use xlink:href="#path-7"></use>
                        </mask>
                        <g id="Clip-3"></g>
                        <path d="M20.7441176,17.081 C20.4076471,17.064375 20.0723529,17.0483438 19.7382353,17.0483438 C8.87941176,17.0483438 0.0441176471,25.91125 0.0441176471,36.8225938 C0.0441176471,41.5494375 1.72882353,46.096375 4.79,49.6772813 C7.81705882,53.2184063 11.9976471,55.5221563 16.5617647,56.2673125 L77.3111765,56.2560313 C84.4258824,54.898125 89.5905882,48.7367813 89.5905882,41.4526563 C89.5905882,34.1299375 84.3558824,27.9139688 77.3682353,26.5489375 C76.7117647,23.2465 75.0388235,20.227875 72.5476471,17.9045313 C69.5764706,15.135875 65.7052941,13.6099375 61.6505882,13.6099375 C59.9788235,13.6099375 58.3188235,13.8741563 56.7364706,14.385375 C55.8811765,10.9725 54.0611765,7.8648125 51.4529412,5.4245 C48.0547059,2.24378125 43.6235294,0.49103125 38.9764706,0.49103125 C29.4829412,0.49103125 21.6535294,7.7793125 20.7441176,17.081" id="Fill-2" fill="url(#linearGradient-3)" mask="url(#mask-8)"></path>
                    </g>
                    <g transform="translate(1.764706, 2.541250)">
                        <mask id="mask-10" fill="white">
                            <use xlink:href="#path-9"></use>
                        </mask>
                        <g id="Clip-6"></g>
                        <path d="M21.1805882,16.54425 C21.1805882,16.8019375 21.1870588,17.0566563 21.1994118,17.3095938 C20.1541176,17.1130625 19.0770588,17.0055938 17.9735294,17.0055938 C8.36176471,17.0055938 0.568823529,24.8347813 0.568823529,34.4927188 C0.568823529,43.1899688 6.88823529,50.399875 15.1641176,51.7506563 L75.1182353,51.7506563 C81.0494118,50.6177813 85.5352941,45.383875 85.5352941,39.0942813 C85.5352941,32.2720938 80.2570588,26.6914375 73.58,26.2425625 C73.0117647,19.1407188 67.1,13.5535313 59.8858824,13.5535313 C57.4541176,13.5535313 55.1717647,14.1912188 53.19,15.3039063 C52.5588235,6.98903125 45.6488235,0.4381875 37.2117647,0.4381875 C28.3570588,0.4381875 21.1805882,7.64928125 21.1805882,16.54425" id="Fill-5" fill="url(#linearGradient-11)" mask="url(#mask-10)"></path>
                    </g>
                </g>
                <g id="cloud" transform="translate(0.000000, 38.000000)">
                    <g id="cloud-outline" transform="translate(0.000000, 0.240139)">
                        <mask id="mask-13" fill="white">
                            <use xlink:href="#path-12"></use>
                        </mask>
                        <g id="Clip-3"></g>
                        <path d="M29.9637255,24.6725556 C29.4777124,24.6485417 28.9933987,24.6253854 28.5107843,24.6253854 C12.825817,24.6253854 0.0637254902,37.4273611 0.0637254902,53.188191 C0.0637254902,60.0158542 2.49718954,66.5836528 6.91888889,71.7560729 C11.2913072,76.8710313 17.3299346,80.1986701 23.922549,81.2750069 L111.671699,81.2587118 C121.948497,79.2972917 129.408627,70.3975729 129.408627,59.876059 C129.408627,49.2987986 121.847386,40.3201771 111.754118,38.3484653 C110.805882,33.5782778 108.389412,29.2180417 104.791046,25.8621007 C100.499346,21.8629306 94.9076471,19.6587986 89.0508497,19.6587986 C86.6360784,19.6587986 84.2383007,20.0404479 81.9526797,20.778875 C80.7172549,15.8491667 78.088366,11.3602847 74.320915,7.83538889 C69.4123529,3.24101736 63.0117647,0.709267361 56.2993464,0.709267361 C42.5864706,0.709267361 31.2773203,11.2367847 29.9637255,24.6725556" id="Fill-2" fill="url(#linearGradient-3)" mask="url(#mask-13)"></path>
                    </g>
                    <g transform="translate(2.549020, 3.670694)">
                        <mask id="mask-15" fill="white">
                            <use xlink:href="#path-14"></use>
                        </mask>
                        <g id="Clip-6"></g>
                        <path d="M30.594183,23.89725 C30.594183,24.2694653 30.6035294,24.6373924 30.6213725,25.0027465 C29.1115033,24.7188681 27.5557516,24.5636354 25.9617647,24.5636354 C12.0781046,24.5636354 0.821633987,35.8724618 0.821633987,49.822816 C0.821633987,62.3855104 9.9496732,72.7998194 21.9037255,74.7509479 L108.504118,74.7509479 C117.071373,73.1145729 123.55098,65.5544861 123.55098,56.4695174 C123.55098,46.6152465 115.926863,38.5542986 106.282222,37.9059236 C105.461438,27.6477049 96.9222222,19.5773229 86.5018301,19.5773229 C82.989281,19.5773229 79.692549,20.4984271 76.83,22.1056424 C75.9183007,10.0952674 65.9371895,0.6329375 53.7503268,0.6329375 C40.9601961,0.6329375 30.594183,11.0489618 30.594183,23.89725" id="Fill-5" fill="url(#linearGradient-16)" mask="url(#mask-15)"></path>
                    </g>
                </g>
            </g>
        </g>
    </g>
</svg>