<?xml version="1.0" encoding="UTF-8"?>
<svg width="162px" height="132px" viewBox="0 0 162 132" version="1.1" xmlns="http://www.w3.org/2000/svg" xmlns:xlink="http://www.w3.org/1999/xlink">
    <!-- Generator: Sketch 48.2 (47327) - http://www.bohemiancoding.com/sketch -->
    <title>Cloudy</title>
    <desc>Created with Sketch.</desc>
    <defs>
        <path d="M32.1452389,0.160123894 C13.779469,1.12747788 -0.325389381,16.8005221 0.641230088,35.166292 C1.60784956,53.5320619 17.2816283,67.6369204 35.6466637,66.6695664 C54.0131681,65.7029469 68.1180265,50.0306372 67.1506726,31.6641327 C66.2149027,13.8933186 51.5136195,0.112380531 33.9242301,0.113849558 C33.3344159,0.113849558 32.7401947,0.129274336 32.1452389,0.160123894" id="path-1"></path>
        <filter x="-29.3%" y="-29.3%" width="158.6%" height="158.6%" filterUnits="objectBoundingBox" id="filter-3">
            <feMorphology radius="1.5" operator="dilate" in="SourceAlpha" result="shadowSpreadOuter1"></feMorphology>
            <feOffset dx="0" dy="0" in="shadowSpreadOuter1" result="shadowOffsetOuter1"></feOffset>
            <feGaussianBlur stdDeviation="5" in="shadowOffsetOuter1" result="shadowBlurOuter1"></feGaussianBlur>
            <feColorMatrix values="0 0 0 0 0.479485544   0 0 0 0 0.372575   0 0 0 0 0.0785710016  0 0 0 1 0" type="matrix" in="shadowBlurOuter1"></feColorMatrix>
        </filter>
        <linearGradient x1="0%" y1="0%" x2="100%" y2="100%" id="linearGradient-4">
            <stop stop-color="#FFF3B5" offset="0%"></stop>
            <stop stop-color="#FFB300" offset="100%"></stop>
        </linearGradient>
        <path d="M28.6445487,0.488451327 C12.0827434,1.3610531 -0.636823009,15.4945575 0.235778761,32.0563628 C1.10764602,48.6181681 15.2411504,61.3377345 31.8022212,60.4658673 C48.3647611,59.5932655 61.0843274,45.4604956 60.2109912,28.8979558 C59.3685044,12.8730796 46.1120088,0.445115044 30.2494602,0.446584071 C29.7176726,0.446584071 29.1814779,0.460539823 28.6445487,0.488451327" id="path-5"></path>
        <linearGradient x1="0%" y1="0%" x2="100%" y2="100%" id="linearGradient-7">
            <stop stop-color="#FFC000" offset="0%"></stop>
            <stop stop-color="#F8BA03" offset="100%"></stop>
        </linearGradient>
        <path d="M34.5735294,28.4683333 C34.0127451,28.440625 33.4539216,28.4139062 32.8970588,28.4139062 C14.7990196,28.4139062 0.0735294118,43.1854167 0.0735294118,61.3709896 C0.0735294118,69.2490625 2.88137255,76.8272917 7.98333333,82.7954688 C13.0284314,88.6973438 19.9960784,92.5369271 27.6029412,93.7788542 L128.851961,93.7600521 C140.709804,91.496875 149.317647,81.2279688 149.317647,69.0877604 C149.317647,56.8832292 140.593137,46.5232812 128.947059,44.2482292 C127.852941,38.7441667 125.064706,33.713125 120.912745,29.8408854 C115.960784,25.2264583 109.508824,22.6832292 102.75098,22.6832292 C99.9647059,22.6832292 97.1980392,23.1235937 94.5607843,23.975625 C93.1352941,18.2875 90.1019608,13.1080208 85.754902,9.04083333 C80.0911765,3.73963542 72.7058824,0.818385417 64.9607843,0.818385417 C49.1382353,0.818385417 36.0892157,12.9655208 34.5735294,28.4683333" id="path-8"></path>
        <linearGradient x1="100%" y1="100%" x2="11.8186458%" y2="32.3290247%" id="linearGradient-10">
            <stop stop-color="#CAF8FF" offset="0%"></stop>
            <stop stop-color="#FFFFFF" offset="100%"></stop>
        </linearGradient>
        <path d="M35.3009804,27.57375 C35.3009804,28.0032292 35.3117647,28.4277604 35.3323529,28.8493229 C33.5901961,28.5217708 31.795098,28.3426563 29.9558824,28.3426563 C13.9362745,28.3426563 0.948039216,41.3913021 0.948039216,57.4878646 C0.948039216,71.9832813 11.4803922,83.9997917 25.2735294,86.2510938 L125.197059,86.2510938 C135.082353,84.3629688 142.558824,75.6397917 142.558824,65.1571354 C142.558824,53.7868229 133.761765,44.4857292 122.633333,43.7376042 C121.686275,31.9011979 111.833333,22.5892188 99.8098039,22.5892188 C95.7568627,22.5892188 91.9529412,23.6520313 88.65,25.5065104 C87.5980392,11.6483854 76.0813725,0.7303125 62.0196078,0.7303125 C47.2617647,0.7303125 35.3009804,12.7488021 35.3009804,27.57375" id="path-11"></path>
        <linearGradient x1="22.0065398%" y1="12.8431602%" x2="100%" y2="100%" id="linearGradient-13">
            <stop stop-color="#E1F7FB" offset="0%"></stop>
            <stop stop-color="#FFFFFF" offset="100%"></stop>
        </linearGradient>
    </defs>
    <g id="Weather-Icons" stroke="none" stroke-width="1" fill="none" fill-rule="evenodd" transform="translate(-30.000000, -24.000000)">
        <g id="Cloudy-Icon" transform="translate(42.000000, 36.000000)">
            <g id="Cloudy">
                <g id="sun">
                    <g id="Group-7" transform="translate(0.345133, 0.520354)">
                        <mask id="mask-2" fill="white">
                            <use xlink:href="#path-1"></use>
                        </mask>
                        <g id="Clip-6" fill="black" fill-opacity="1">
                            <use filter="url(#filter-3)" xlink:href="#path-1"></use>
                        </g>
                        <path d="M32.1452389,0.160123894 C13.779469,1.12747788 -0.325389381,16.8005221 0.641230088,35.166292 C1.60784956,53.5320619 17.2816283,67.6369204 35.6466637,66.6695664 C54.0131681,65.7029469 68.1180265,50.0306372 67.1506726,31.6641327 C66.2149027,13.8933186 51.5136195,0.112380531 33.9242301,0.113849558 C33.3344159,0.113849558 32.7401947,0.129274336 32.1452389,0.160123894" id="Fill-5" fill="url(#linearGradient-4)" mask="url(#mask-2)"></path>
                    </g>
                    <g id="Group-10" transform="translate(4.017699, 3.458407)">
                        <mask id="mask-6" fill="white">
                            <use xlink:href="#path-5"></use>
                        </mask>
                        <g id="Clip-9"></g>
                        <path d="M28.6445487,0.488451327 C12.0827434,1.3610531 -0.636823009,15.4945575 0.235778761,32.0563628 C1.10764602,48.6181681 15.2411504,61.3377345 31.8022212,60.4658673 C48.3647611,59.5932655 61.0843274,45.4604956 60.2109912,28.8979558 C59.3685044,12.8730796 46.1120088,0.445115044 30.2494602,0.446584071 C29.7176726,0.446584071 29.1814779,0.460539823 28.6445487,0.488451327" id="Fill-8" fill="url(#linearGradient-7)" mask="url(#mask-6)"></path>
                    </g>
                </g>
                <g id="cloud" transform="translate(0.000000, 25.000000)">
                    <g id="cloud-outline" transform="translate(0.000000, 0.277083)">
                        <mask id="mask-9" fill="white">
                            <use xlink:href="#path-8"></use>
                        </mask>
                        <g id="Clip-3"></g>
                        <path d="M34.5735294,28.4683333 C34.0127451,28.440625 33.4539216,28.4139062 32.8970588,28.4139062 C14.7990196,28.4139062 0.0735294118,43.1854167 0.0735294118,61.3709896 C0.0735294118,69.2490625 2.88137255,76.8272917 7.98333333,82.7954688 C13.0284314,88.6973438 19.9960784,92.5369271 27.6029412,93.7788542 L128.851961,93.7600521 C140.709804,91.496875 149.317647,81.2279688 149.317647,69.0877604 C149.317647,56.8832292 140.593137,46.5232812 128.947059,44.2482292 C127.852941,38.7441667 125.064706,33.713125 120.912745,29.8408854 C115.960784,25.2264583 109.508824,22.6832292 102.75098,22.6832292 C99.9647059,22.6832292 97.1980392,23.1235937 94.5607843,23.975625 C93.1352941,18.2875 90.1019608,13.1080208 85.754902,9.04083333 C80.0911765,3.73963542 72.7058824,0.818385417 64.9607843,0.818385417 C49.1382353,0.818385417 36.0892157,12.9655208 34.5735294,28.4683333" id="Fill-2" fill="url(#linearGradient-10)" mask="url(#mask-9)"></path>
                    </g>
                    <g transform="translate(2.941176, 4.235417)">
                        <mask id="mask-12" fill="white">
                            <use xlink:href="#path-11"></use>
                        </mask>
                        <g id="Clip-6"></g>
                        <path d="M35.3009804,27.57375 C35.3009804,28.0032292 35.3117647,28.4277604 35.3323529,28.8493229 C33.5901961,28.5217708 31.795098,28.3426563 29.9558824,28.3426563 C13.9362745,28.3426563 0.948039216,41.3913021 0.948039216,57.4878646 C0.948039216,71.9832813 11.4803922,83.9997917 25.2735294,86.2510938 L125.197059,86.2510938 C135.082353,84.3629688 142.558824,75.6397917 142.558824,65.1571354 C142.558824,53.7868229 133.761765,44.4857292 122.633333,43.7376042 C121.686275,31.9011979 111.833333,22.5892188 99.8098039,22.5892188 C95.7568627,22.5892188 91.9529412,23.6520313 88.65,25.5065104 C87.5980392,11.6483854 76.0813725,0.7303125 62.0196078,0.7303125 C47.2617647,0.7303125 35.3009804,12.7488021 35.3009804,27.57375" id="Fill-5" fill="url(#linearGradient-13)" mask="url(#mask-12)"></path>
                    </g>
                </g>
            </g>
        </g>
    </g>
</svg>