<?xml version="1.0" encoding="UTF-8"?>
<svg width="124px" height="120px" viewBox="0 0 124 120" version="1.1" xmlns="http://www.w3.org/2000/svg" xmlns:xlink="http://www.w3.org/1999/xlink">
    <!-- Generator: Sketch 48.2 (47327) - http://www.bohemiancoding.com/sketch -->
    <title>Rainy</title>
    <desc>Created with Sketch.</desc>
    <defs>
        <path d="M12,0.722 L9.532,4.295 C7.941,6.6 0,18.379 0,24 C0,30.617 5.384,36 12,36 C18.617,36 24,30.617 24,24 C24,18.379 16.061,6.6 14.468,4.295 L12,0.722 Z" id="path-1"></path>
        <linearGradient x1="22.0065398%" y1="12.8431602%" x2="100%" y2="100%" id="linearGradient-3">
            <stop stop-color="#E1F7FB" offset="75.4504145%"></stop>
            <stop stop-color="#FFFFFF" offset="0%"></stop>
        </linearGradient>
        <path d="M0,18 C0,22.971 4.029,27 9,27 C13.97,27 18,22.971 18,18 C18,13.03 9,0 9,0 C9,0 0,13.03 0,18" id="path-4"></path>
        <linearGradient x1="22.0065398%" y1="12.8431602%" x2="100%" y2="100%" id="linearGradient-6">
            <stop stop-color="#E1F7FB" offset="0%"></stop>
            <stop stop-color="#98D4EB" offset="100%"></stop>
        </linearGradient>
        <path d="M12,0.722 L9.532,4.295 C7.941,6.6 0,18.379 0,24 C0,30.617 5.384,36 12,36 C18.617,36 24,30.617 24,24 C24,18.379 16.061,6.6 14.468,4.295 L12,0.722 Z" id="path-7"></path>
        <path d="M0,18 C0,22.971 4.029,27 9,27 C13.97,27 18,22.971 18,18 C18,13.03 9,0 9,0 C9,0 0,13.03 0,18" id="path-9"></path>
        <path d="M12,0.722 L9.532,4.295 C7.941,6.6 0,18.379 0,24 C0,30.617 5.384,36 12,36 C18.617,36 24,30.617 24,24 C24,18.379 16.061,6.6 14.468,4.295 L12,0.722 Z" id="path-11"></path>
        <path d="M0,18 C0,22.971 4.029,27 9,27 C13.97,27 18,22.971 18,18 C18,13.03 9,0 9,0 C9,0 0,13.03 0,18" id="path-13"></path>
        <path d="M28.5536678,23.5114941 C28.090526,23.4886103 27.6290035,23.4665438 27.1691003,23.4665438 C12.2222491,23.4665438 0.0607266436,35.6660735 0.0607266436,50.6852173 C0.0607266436,57.1915787 2.37967474,63.4503044 6.59329412,68.3793165 C10.7599516,73.253571 16.5144083,76.4246151 22.796782,77.4503007 L106.416561,77.4347724 C116.209744,75.5656544 123.31881,67.084746 123.31881,57.0583621 C123.31881,46.9788551 116.113391,38.422757 106.4951,36.5438316 C105.591488,31.9981235 103.288734,27.843075 99.8597024,24.6450607 C95.7699654,20.8340868 90.4414048,18.7336787 84.8602215,18.7336787 C82.5590865,18.7336787 80.2741453,19.097368 78.096083,19.8010456 C76.9187958,15.1033235 74.4136194,10.8256831 70.8234602,7.46666471 C66.1458893,3.0884989 60.0465052,0.675890074 53.6499654,0.675890074 C40.5824014,0.675890074 29.8054464,10.7079949 28.5536678,23.5114941" id="path-15"></path>
        <linearGradient x1="100%" y1="100%" x2="11.8186458%" y2="32.3290247%" id="linearGradient-17">
            <stop stop-color="#CAF8FF" offset="0%"></stop>
            <stop stop-color="#FFFFFF" offset="100%"></stop>
        </linearGradient>
        <path d="M29.1544567,22.7726735 C29.1544567,23.1273728 29.1633633,23.4779857 29.1803668,23.8261467 C27.7415502,23.5556272 26.2590104,23.4076996 24.7400346,23.4076996 C11.5097232,23.4076996 0.782968858,34.184346 0.782968858,47.4782129 C0.782968858,59.4497217 9.48145329,69.3739456 20.8729619,71.2332563 L103.398042,71.2332563 C111.562131,69.6738871 117.736817,62.4695691 117.736817,53.8121283 C117.736817,44.4215879 110.471481,36.7399787 101.280706,36.1221154 C100.498547,26.3466364 92.3611765,18.6560371 82.4311557,18.6560371 C79.0839031,18.6560371 75.9423114,19.5337952 73.2144706,21.0653768 C72.3456747,9.62019596 62.834263,0.603152206 51.2208997,0.603152206 C39.0326574,0.603152206 29.1544567,10.5290107 29.1544567,22.7726735" id="path-18"></path>
        <linearGradient x1="22.0065398%" y1="12.8431602%" x2="100%" y2="100%" id="linearGradient-20">
            <stop stop-color="#E1F7FB" offset="0%"></stop>
            <stop stop-color="#FFFFFF" offset="100%"></stop>
        </linearGradient>
    </defs>
    <g id="Weather-Icons" stroke="none" stroke-width="1" fill="none" fill-rule="evenodd" transform="translate(-720.000000, -46.000000)">
        <g id="Rainy-Icon" transform="translate(720.000000, 46.000000)">
            <g id="Rainy">
                <g id="Drops" transform="translate(16.000000, 83.000000)">
                    <g id="RainDrop" transform="translate(12.000000, 18.500000) rotate(15.000000) translate(-12.000000, -18.500000) ">
                        <g id="Group-3" transform="translate(0.000000, 0.278300)">
                            <mask id="mask-2" fill="white">
                                <use xlink:href="#path-1"></use>
                            </mask>
                            <g id="Clip-2"></g>
                            <path d="M12,0.722 L9.532,4.295 C7.941,6.6 0,18.379 0,24 C0,30.617 5.384,36 12,36 C18.617,36 24,30.617 24,24 C24,18.379 16.061,6.6 14.468,4.295 L12,0.722 Z" id="Fill-1" fill="url(#linearGradient-3)" mask="url(#mask-2)"></path>
                        </g>
                        <g id="Group-6" transform="translate(3.000000, 6.278300)">
                            <mask id="mask-5" fill="white">
                                <use xlink:href="#path-4"></use>
                            </mask>
                            <g id="Clip-5"></g>
                            <path d="M0,18 C0,22.971 4.029,27 9,27 C13.97,27 18,22.971 18,18 C18,13.03 9,0 9,0 C9,0 0,13.03 0,18" id="Fill-4" fill="url(#linearGradient-6)" mask="url(#mask-5)"></path>
                        </g>
                    </g>
                    <g id="RainDrop" transform="translate(46.000000, 18.500000) rotate(15.000000) translate(-46.000000, -18.500000) translate(34.000000, 0.000000)">
                        <g id="Group-3" transform="translate(0.000000, 0.278300)">
                            <mask id="mask-8" fill="white">
                                <use xlink:href="#path-7"></use>
                            </mask>
                            <g id="Clip-2"></g>
                            <path d="M12,0.722 L9.532,4.295 C7.941,6.6 0,18.379 0,24 C0,30.617 5.384,36 12,36 C18.617,36 24,30.617 24,24 C24,18.379 16.061,6.6 14.468,4.295 L12,0.722 Z" id="Fill-1" fill="url(#linearGradient-3)" mask="url(#mask-8)"></path>
                        </g>
                        <g id="Group-6" transform="translate(3.000000, 6.278300)">
                            <mask id="mask-10" fill="white">
                                <use xlink:href="#path-9"></use>
                            </mask>
                            <g id="Clip-5"></g>
                            <path d="M0,18 C0,22.971 4.029,27 9,27 C13.97,27 18,22.971 18,18 C18,13.03 9,0 9,0 C9,0 0,13.03 0,18" id="Fill-4" fill="url(#linearGradient-6)" mask="url(#mask-10)"></path>
                        </g>
                    </g>
                    <g id="RainDrop" transform="translate(80.000000, 18.500000) rotate(15.000000) translate(-80.000000, -18.500000) translate(68.000000, 0.000000)">
                        <g id="Group-3" transform="translate(0.000000, 0.278300)">
                            <mask id="mask-12" fill="white">
                                <use xlink:href="#path-11"></use>
                            </mask>
                            <g id="Clip-2"></g>
                            <path d="M12,0.722 L9.532,4.295 C7.941,6.6 0,18.379 0,24 C0,30.617 5.384,36 12,36 C18.617,36 24,30.617 24,24 C24,18.379 16.061,6.6 14.468,4.295 L12,0.722 Z" id="Fill-1" fill="url(#linearGradient-3)" mask="url(#mask-12)"></path>
                        </g>
                        <g id="Group-6" transform="translate(3.000000, 6.278300)">
                            <mask id="mask-14" fill="white">
                                <use xlink:href="#path-13"></use>
                            </mask>
                            <g id="Clip-5"></g>
                            <path d="M0,18 C0,22.971 4.029,27 9,27 C13.97,27 18,22.971 18,18 C18,13.03 9,0 9,0 C9,0 0,13.03 0,18" id="Fill-4" fill="url(#linearGradient-6)" mask="url(#mask-14)"></path>
                        </g>
                    </g>
                </g>
                <g id="cloud">
                    <g id="cloud-outline" transform="translate(0.000000, 0.228838)">
                        <mask id="mask-16" fill="white">
                            <use xlink:href="#path-15"></use>
                        </mask>
                        <g id="Clip-3"></g>
                        <path d="M28.5536678,23.5114941 C28.090526,23.4886103 27.6290035,23.4665438 27.1691003,23.4665438 C12.2222491,23.4665438 0.0607266436,35.6660735 0.0607266436,50.6852173 C0.0607266436,57.1915787 2.37967474,63.4503044 6.59329412,68.3793165 C10.7599516,73.253571 16.5144083,76.4246151 22.796782,77.4503007 L106.416561,77.4347724 C116.209744,75.5656544 123.31881,67.084746 123.31881,57.0583621 C123.31881,46.9788551 116.113391,38.422757 106.4951,36.5438316 C105.591488,31.9981235 103.288734,27.843075 99.8597024,24.6450607 C95.7699654,20.8340868 90.4414048,18.7336787 84.8602215,18.7336787 C82.5590865,18.7336787 80.2741453,19.097368 78.096083,19.8010456 C76.9187958,15.1033235 74.4136194,10.8256831 70.8234602,7.46666471 C66.1458893,3.0884989 60.0465052,0.675890074 53.6499654,0.675890074 C40.5824014,0.675890074 29.8054464,10.7079949 28.5536678,23.5114941" id="Fill-2" fill="url(#linearGradient-17)" mask="url(#mask-16)"></path>
                    </g>
                    <g transform="translate(2.429066, 3.497956)">
                        <mask id="mask-19" fill="white">
                            <use xlink:href="#path-18"></use>
                        </mask>
                        <g id="Clip-6"></g>
                        <path d="M29.1544567,22.7726735 C29.1544567,23.1273728 29.1633633,23.4779857 29.1803668,23.8261467 C27.7415502,23.5556272 26.2590104,23.4076996 24.7400346,23.4076996 C11.5097232,23.4076996 0.782968858,34.184346 0.782968858,47.4782129 C0.782968858,59.4497217 9.48145329,69.3739456 20.8729619,71.2332563 L103.398042,71.2332563 C111.562131,69.6738871 117.736817,62.4695691 117.736817,53.8121283 C117.736817,44.4215879 110.471481,36.7399787 101.280706,36.1221154 C100.498547,26.3466364 92.3611765,18.6560371 82.4311557,18.6560371 C79.0839031,18.6560371 75.9423114,19.5337952 73.2144706,21.0653768 C72.3456747,9.62019596 62.834263,0.603152206 51.2208997,0.603152206 C39.0326574,0.603152206 29.1544567,10.5290107 29.1544567,22.7726735" id="Fill-5" fill="url(#linearGradient-20)" mask="url(#mask-19)"></path>
                    </g>
                </g>
            </g>
        </g>
    </g>
</svg>