<?xml version="1.0" encoding="UTF-8"?>
<svg width="90px" height="93px" viewBox="0 0 90 93" version="1.1" xmlns="http://www.w3.org/2000/svg" xmlns:xlink="http://www.w3.org/1999/xlink">
    <!-- Generator: Sketch 48.2 (47327) - http://www.bohemiancoding.com/sketch -->
    <title>Snow</title>
    <desc>Created with Sketch.</desc>
    <defs>
        <path d="M33.9958763,10.8486723 L33.9958763,20.1576414 L28.001134,14.2445486 C25.9626804,12.2051672 23.1494845,11.0824868 20.2713402,11.0824868 C17.3931959,11.0824868 14.6857732,12.2051672 12.6510309,14.2426929 C10.614433,16.2765074 9.49268041,18.9301156 9.49268041,21.7154764 C9.49360825,24.5064043 10.62,27.168363 12.695567,29.2402187 L19.9883505,36.3836208 L10.816701,36.3836208 C4.96484536,36.3836208 0.0194845361,41.4820744 0.0194845361,47.5176414 C0.0194845361,53.5532084 4.96484536,58.651662 10.816701,58.651662 L16.543299,58.651662 L12.6825773,62.5086723 C10.642268,64.5452703 9.52515464,67.2517651 9.5242268,70.1317651 C9.5242268,73.0126929 10.6598969,75.7219713 12.6974227,77.7567136 C14.7284536,79.7933115 17.4664948,80.9141362 20.3594845,80.9141362 C23.2135052,80.9141362 25.9626804,79.7886723 28.006701,77.7409404 L33.9958763,71.8334146 L33.9958763,81.6499094 C33.9958763,87.5017651 39.0943299,92.4452703 45.1298969,92.4452703 C51.1654639,92.4452703 56.2639175,87.5017651 56.2639175,81.6499094 L56.2639175,72.4801156 L61.8040206,78.2456826 C63.8693814,80.319394 66.3559794,81.416095 69.1951546,81.416095 C72.0380412,81.416095 74.7250515,80.2906311 76.7570103,78.2540331 C78.8010309,76.2100125 79.9181443,73.4951672 79.9014433,70.6096002 C79.8856701,67.7490847 78.7564948,65.0546517 76.7124742,63.0106311 L72.3265979,58.651662 L78.5412371,58.651662 C84.3940206,58.651662 89.3375258,53.5532084 89.3375258,47.5176414 C89.3375258,41.4820744 84.3940206,36.3836208 78.5412371,36.3836208 L68.8462887,36.3836208 L76.6874227,28.6974352 C78.7286598,26.6589816 79.8587629,23.9756826 79.8596907,21.1392909 C79.8596907,18.3010435 78.7490722,15.6177445 76.7115464,13.5830022 C74.6981443,11.5658888 72.0890722,10.4561981 69.3194845,10.4561981 C66.5072165,10.4561981 63.8730928,11.592796 61.7696907,13.6999094 L56.2639175,19.4617651 L56.2639175,10.8486723 C56.2639175,4.99496098 51.1654639,0.0514558243 45.1298969,0.0514558243 C39.0943299,0.0514558243 33.9958763,4.99496098 33.9958763,10.8486723" id="path-1"></path>
        <linearGradient x1="22.0065398%" y1="12.8431602%" x2="100%" y2="100%" id="linearGradient-3">
            <stop stop-color="#E1F7FB" offset="0%"></stop>
            <stop stop-color="#FFFFFF" offset="100%"></stop>
        </linearGradient>
        <linearGradient x1="100%" y1="100%" x2="0%" y2="0%" id="linearGradient-4">
            <stop stop-color="#E1F7FB" offset="0%"></stop>
            <stop stop-color="#98D4EB" offset="100%"></stop>
        </linearGradient>
    </defs>
    <g id="Weather-Icons" stroke="none" stroke-width="1" fill="none" fill-rule="evenodd" transform="translate(-541.000000, -46.000000)">
        <g id="Snow-Icon" transform="translate(541.000000, 46.000000)">
            <g id="Snow">
                <g id="Group-4" transform="translate(0.000000, 0.074227)">
                    <mask id="mask-2" fill="white">
                        <use xlink:href="#path-1"></use>
                    </mask>
                    <use id="Clip-3" fill="#DBF5FC" xlink:href="#path-1"></use>
                    <path d="M33.9958763,10.8486723 L33.9958763,20.1576414 L28.001134,14.2445486 C25.9626804,12.2051672 23.1494845,11.0824868 20.2713402,11.0824868 C17.3931959,11.0824868 14.6857732,12.2051672 12.6510309,14.2426929 C10.614433,16.2765074 9.49268041,18.9301156 9.49268041,21.7154764 C9.49360825,24.5064043 10.62,27.168363 12.695567,29.2402187 L19.9883505,36.3836208 L10.816701,36.3836208 C4.96484536,36.3836208 0.0194845361,41.4820744 0.0194845361,47.5176414 C0.0194845361,53.5532084 4.96484536,58.651662 10.816701,58.651662 L16.543299,58.651662 L12.6825773,62.5086723 C10.642268,64.5452703 9.52515464,67.2517651 9.5242268,70.1317651 C9.5242268,73.0126929 10.6598969,75.7219713 12.6974227,77.7567136 C14.7284536,79.7933115 17.4664948,80.9141362 20.3594845,80.9141362 C23.2135052,80.9141362 25.9626804,79.7886723 28.006701,77.7409404 L33.9958763,71.8334146 L33.9958763,81.6499094 C33.9958763,87.5017651 39.0943299,92.4452703 45.1298969,92.4452703 C51.1654639,92.4452703 56.2639175,87.5017651 56.2639175,81.6499094 L56.2639175,72.4801156 L61.8040206,78.2456826 C63.8693814,80.319394 66.3559794,81.416095 69.1951546,81.416095 C72.0380412,81.416095 74.7250515,80.2906311 76.7570103,78.2540331 C78.8010309,76.2100125 79.9181443,73.4951672 79.9014433,70.6096002 C79.8856701,67.7490847 78.7564948,65.0546517 76.7124742,63.0106311 L72.3265979,58.651662 L78.5412371,58.651662 C84.3940206,58.651662 89.3375258,53.5532084 89.3375258,47.5176414 C89.3375258,41.4820744 84.3940206,36.3836208 78.5412371,36.3836208 L68.8462887,36.3836208 L76.6874227,28.6974352 C78.7286598,26.6589816 79.8587629,23.9756826 79.8596907,21.1392909 C79.8596907,18.3010435 78.7490722,15.6177445 76.7115464,13.5830022 C74.6981443,11.5658888 72.0890722,10.4561981 69.3194845,10.4561981 C66.5072165,10.4561981 63.8730928,11.592796 61.7696907,13.6999094 L56.2639175,19.4617651 L56.2639175,10.8486723 C56.2639175,4.99496098 51.1654639,0.0514558243 45.1298969,0.0514558243 C39.0943299,0.0514558243 33.9958763,4.99496098 33.9958763,10.8486723" id="Fill-2" fill="url(#linearGradient-3)" mask="url(#mask-2)"></path>
                </g>
                <path d="M78.5418866,41.0970228 L57.4920928,41.0970228 L73.4035361,25.4899094 C75.8084845,23.0877445 75.8084845,19.338363 73.4035361,16.9352703 C71.0004433,14.5303218 67.4960103,14.6064043 65.0929175,17.0113527 L51.6244639,30.9492909 L51.6244639,10.9228991 C51.6244639,7.52052799 48.530134,4.76485789 45.1296186,4.76485789 C41.7291031,4.76485789 38.6347732,7.52052799 38.6347732,10.9228991 L38.6347732,31.460528 L24.7191031,17.5986723 C22.3160103,15.1937239 18.3847732,15.1937239 15.9816804,17.5986723 C13.576732,20.0008373 13.5628144,23.5989816 15.9686907,26.0002187 L31.3559072,41.0970228 L10.8173505,41.0970228 C7.41683505,41.0970228 4.65930928,44.1913527 4.65930928,47.5918682 C4.65930928,50.9923837 7.41683505,54.0867136 10.8173505,54.0867136 L27.7642577,54.0867136 L15.9538454,65.8655795 C13.5488969,68.2658888 13.5488969,72.151662 15.9538454,74.5547548 C17.1535361,75.7553734 18.7317835,76.3491878 20.3063196,76.3491878 C21.8817835,76.3491878 23.5194124,75.7433115 24.7191031,74.5417651 L38.6347732,60.6752703 L38.6347732,81.7241362 C38.6347732,85.1237239 41.7291031,87.8812496 45.1296186,87.8812496 C48.530134,87.8812496 51.6244639,85.1237239 51.6244639,81.7241362 L51.6244639,61.1855795 L65.0929175,75.0474352 C66.2907526,76.2508373 67.672299,76.8511465 69.2468351,76.8511465 C70.822299,76.8511465 72.3031237,76.2508373 73.5028144,75.0474352 C75.9077629,72.6434146 75.8595155,68.7780538 73.4554948,66.374961 L61.0809588,54.0867136 L78.5418866,54.0867136 C81.9405464,54.0867136 84.6980722,50.9923837 84.6980722,47.5918682 C84.6980722,44.1913527 81.9405464,41.0970228 78.5418866,41.0970228" id="Fill-5" fill="url(#linearGradient-4)"></path>
            </g>
        </g>
    </g>
</svg>