<?xml version="1.0" encoding="UTF-8"?>
<svg width="150px" height="119px" viewBox="0 0 150 119" version="1.1" xmlns="http://www.w3.org/2000/svg" xmlns:xlink="http://www.w3.org/1999/xlink">
    <!-- Generator: Sketch 48.2 (47327) - http://www.bohemiancoding.com/sketch -->
    <title>Windy</title>
    <desc>Created with Sketch.</desc>
    <defs>
        <path d="M34.5735294,28.4683333 C34.0127451,28.440625 33.4539216,28.4139062 32.8970588,28.4139062 C14.7990196,28.4139062 0.0735294118,43.1854167 0.0735294118,61.3709896 C0.0735294118,69.2490625 2.88137255,76.8272917 7.98333333,82.7954687 C13.0284314,88.6973438 19.9960784,92.5369271 27.6029412,93.7788542 L128.851961,93.7600521 C140.709804,91.496875 149.317647,81.2279688 149.317647,69.0877604 C149.317647,56.8832292 140.593137,46.5232812 128.947059,44.2482292 C127.852941,38.7441667 125.064706,33.713125 120.912745,29.8408854 C115.960784,25.2264583 109.508824,22.6832292 102.75098,22.6832292 C99.9647059,22.6832292 97.1980392,23.1235937 94.5607843,23.975625 C93.1352941,18.2875 90.1019608,13.1080208 85.754902,9.04083333 C80.0911765,3.73963542 72.7058824,0.818385417 64.9607843,0.818385417 C49.1382353,0.818385417 36.0892157,12.9655208 34.5735294,28.4683333" id="path-1"></path>
        <linearGradient x1="100%" y1="100%" x2="11.8186458%" y2="32.3290247%" id="linearGradient-3">
            <stop stop-color="#CAF8FF" offset="0%"></stop>
            <stop stop-color="#FFFFFF" offset="100%"></stop>
        </linearGradient>
        <path d="M35.3009804,27.57375 C35.3009804,28.0032292 35.3117647,28.4277604 35.3323529,28.8493229 C33.5901961,28.5217708 31.795098,28.3426562 29.9558824,28.3426562 C13.9362745,28.3426562 0.948039216,41.3913021 0.948039216,57.4878646 C0.948039216,71.9832813 11.4803922,83.9997917 25.2735294,86.2510938 L125.197059,86.2510938 C135.082353,84.3629688 142.558824,75.6397917 142.558824,65.1571354 C142.558824,53.7868229 133.761765,44.4857292 122.633333,43.7376042 C121.686275,31.9011979 111.833333,22.5892188 99.8098039,22.5892188 C95.7568627,22.5892188 91.9529412,23.6520313 88.65,25.5065104 C87.5980392,11.6483854 76.0813725,0.7303125 62.0196078,0.7303125 C47.2617647,0.7303125 35.3009804,12.7488021 35.3009804,27.57375" id="path-4"></path>
        <linearGradient x1="22.0065398%" y1="12.8431602%" x2="100%" y2="100%" id="linearGradient-6">
            <stop stop-color="#E1F7FB" offset="0%"></stop>
            <stop stop-color="#FFFFFF" offset="100%"></stop>
        </linearGradient>
        <linearGradient x1="100%" y1="50%" x2="0%" y2="50%" id="linearGradient-7">
            <stop stop-color="#B0F5FF" offset="0%"></stop>
            <stop stop-color="#FFFFFF" offset="100%"></stop>
        </linearGradient>
    </defs>
    <g id="Weather-Icons" stroke="none" stroke-width="1" fill="none" fill-rule="evenodd" transform="translate(-295.000000, -33.000000)">
        <g id="Windy-Icon" transform="translate(295.000000, 32.000000)">
            <g id="Windy">
                <g id="cloud">
                    <g id="cloud-outline" transform="translate(0.000000, 0.277083)">
                        <mask id="mask-2" fill="white">
                            <use xlink:href="#path-1"></use>
                        </mask>
                        <g id="Clip-3"></g>
                        <path d="M34.5735294,28.4683333 C34.0127451,28.440625 33.4539216,28.4139062 32.8970588,28.4139062 C14.7990196,28.4139062 0.0735294118,43.1854167 0.0735294118,61.3709896 C0.0735294118,69.2490625 2.88137255,76.8272917 7.98333333,82.7954687 C13.0284314,88.6973438 19.9960784,92.5369271 27.6029412,93.7788542 L128.851961,93.7600521 C140.709804,91.496875 149.317647,81.2279688 149.317647,69.0877604 C149.317647,56.8832292 140.593137,46.5232812 128.947059,44.2482292 C127.852941,38.7441667 125.064706,33.713125 120.912745,29.8408854 C115.960784,25.2264583 109.508824,22.6832292 102.75098,22.6832292 C99.9647059,22.6832292 97.1980392,23.1235937 94.5607843,23.975625 C93.1352941,18.2875 90.1019608,13.1080208 85.754902,9.04083333 C80.0911765,3.73963542 72.7058824,0.818385417 64.9607843,0.818385417 C49.1382353,0.818385417 36.0892157,12.9655208 34.5735294,28.4683333" id="Fill-2" fill="url(#linearGradient-3)" mask="url(#mask-2)"></path>
                    </g>
                    <g transform="translate(2.941176, 4.235417)">
                        <mask id="mask-5" fill="white">
                            <use xlink:href="#path-4"></use>
                        </mask>
                        <g id="Clip-6"></g>
                        <path d="M35.3009804,27.57375 C35.3009804,28.0032292 35.3117647,28.4277604 35.3323529,28.8493229 C33.5901961,28.5217708 31.795098,28.3426562 29.9558824,28.3426562 C13.9362745,28.3426562 0.948039216,41.3913021 0.948039216,57.4878646 C0.948039216,71.9832813 11.4803922,83.9997917 25.2735294,86.2510938 L125.197059,86.2510938 C135.082353,84.3629688 142.558824,75.6397917 142.558824,65.1571354 C142.558824,53.7868229 133.761765,44.4857292 122.633333,43.7376042 C121.686275,31.9011979 111.833333,22.5892188 99.8098039,22.5892188 C95.7568627,22.5892188 91.9529412,23.6520313 88.65,25.5065104 C87.5980392,11.6483854 76.0813725,0.7303125 62.0196078,0.7303125 C47.2617647,0.7303125 35.3009804,12.7488021 35.3009804,27.57375" id="Fill-5" fill="url(#linearGradient-6)" mask="url(#mask-5)"></path>
                    </g>
                </g>
                <g id="Air" transform="translate(4.000000, 98.000000)">
                    <rect id="Rectangle-6" fill="url(#linearGradient-7)" x="0" y="0" width="86" height="9" rx="4.5"></rect>
                    <rect id="Rectangle-6" fill="url(#linearGradient-6)" x="1.04878049" y="1" width="83.902439" height="7" rx="3.5"></rect>
                </g>
                <g id="Air" transform="translate(39.000000, 111.000000)">
                    <rect id="Rectangle-6" fill="url(#linearGradient-7)" x="0" y="0" width="82" height="9" rx="4.5"></rect>
                    <rect id="Rectangle-6" fill="url(#linearGradient-6)" x="1" y="1" width="80" height="7" rx="3.5"></rect>
                </g>
                <g id="Air" transform="translate(100.000000, 98.000000)">
                    <rect id="Rectangle-6" fill="url(#linearGradient-7)" x="0" y="0" width="48" height="9" rx="4.5"></rect>
                    <rect id="Rectangle-6" fill="url(#linearGradient-6)" x="0.585365854" y="1" width="46.8292683" height="7" rx="3.5"></rect>
                </g>
            </g>
        </g>
    </g>
</svg>